<svg xmlns="http://www.w3.org/2000/svg" xmlns:xlink="http://www.w3.org/1999/xlink" width="273" zoomAndPan="magnify" viewBox="0 0 204.75 186.749996" height="249" preserveAspectRatio="xMidYMid meet" version="1.0"><defs><clipPath id="ed6a7fbcba"><path d="M 65.097656 28.984375 L 152.097656 28.984375 L 152.097656 166.65625 L 65.097656 166.65625 Z M 65.097656 28.984375 " clip-rule="nonzero"/></clipPath><clipPath id="316a7fcc1f"><path d="M 48.84375 166.839844 L 167.363281 166.839844 L 167.363281 172.933594 L 48.84375 172.933594 Z M 48.84375 166.839844 " clip-rule="nonzero"/></clipPath><clipPath id="0d1b6853a2"><path d="M 37.390625 172.933594 L 175.371094 172.933594 L 175.371094 179.222656 L 37.390625 179.222656 Z M 37.390625 172.933594 " clip-rule="nonzero"/></clipPath><clipPath id="de8f2da04f"><path d="M 27.894531 179.222656 L 184.863281 179.222656 L 184.863281 186.484375 L 27.894531 186.484375 Z M 27.894531 179.222656 " clip-rule="nonzero"/></clipPath><clipPath id="e059bbf199"><path d="M 7 3 L 79 3 L 79 130 L 7 130 Z M 7 3 " clip-rule="nonzero"/></clipPath><clipPath id="ee673d5789"><path d="M 0.0117188 7.3125 L 63.652344 0.0117188 L 78.355469 128.242188 L 14.71875 135.539062 Z M 0.0117188 7.3125 " clip-rule="nonzero"/></clipPath><clipPath id="0a7a902280"><path d="M 0.0117188 7.3125 L 63.652344 0.0117188 L 78.355469 128.242188 L 14.71875 135.539062 Z M 0.0117188 7.3125 " clip-rule="nonzero"/></clipPath><clipPath id="56d08dfb71"><path d="M 0.0859375 7.941406 L 63.871094 0.625 L 78.460938 127.847656 L 14.675781 135.164062 Z M 0.0859375 7.941406 " clip-rule="nonzero"/></clipPath><clipPath id="80d1d03b14"><path d="M 140.371094 3.867188 L 204.308594 3.867188 L 204.308594 131.925781 L 140.371094 131.925781 Z M 140.371094 3.867188 " clip-rule="nonzero"/></clipPath></defs><path fill="#ebad17" d="M 84.8125 63.433594 L 99.132812 60.464844 L 106.382812 73.167969 L 107.984375 58.628906 L 121.597656 55.808594 L 122.304688 55.660156 L 108.972656 49.644531 L 110.574219 35.109375 L 100.734375 45.925781 L 98.730469 45.023438 L 87.40625 39.910156 L 94.652344 52.613281 L 84.8125 63.433594 " fill-opacity="1" fill-rule="nonzero"/><g clip-path="url(#ed6a7fbcba)"><path fill="#ebad17" d="M 149.742188 160.621094 L 149.742188 164.351562 L 67.628906 164.351562 L 67.628906 160.621094 Z M 81.230469 148.128906 L 84.863281 138.4375 L 86.808594 133.25 L 130.5625 133.25 L 131.105469 134.703125 L 139.890625 158.132812 L 77.480469 158.132812 Z M 79.976562 67.613281 L 97.550781 63.96875 L 108.425781 83.023438 L 110.828125 61.21875 L 124.25 58.4375 L 129.207031 60.773438 C 128.050781 81.726562 120.5 107.644531 95.703125 129.824219 Z M 71.347656 33.480469 L 83.398438 39.167969 L 90.832031 52.191406 L 79.285156 64.886719 Z M 133.519531 134.050781 L 132.285156 130.761719 L 124.921875 130.761719 L 136.820312 61.613281 L 129.324219 58.078125 L 124.558594 55.832031 L 108.550781 59.148438 L 106.789062 75.136719 L 98.816406 61.164062 L 83.0625 64.429688 L 93.890625 52.53125 L 85.167969 37.25 L 67.644531 28.984375 L 77.277344 67.09375 L 77.535156 68.117188 L 93.375 130.761719 L 85.082031 130.761719 L 81.28125 140.894531 L 78.273438 148.925781 L 74.820312 158.132812 L 65.140625 158.132812 L 65.140625 166.839844 L 152.230469 166.839844 L 152.230469 158.132812 L 142.550781 158.132812 L 133.519531 134.050781 " fill-opacity="1" fill-rule="nonzero"/></g><path fill="#ebad17" d="M 90.644531 139.46875 L 90.644531 151.910156 L 126.722656 151.910156 L 126.722656 139.46875 L 90.644531 139.46875 " fill-opacity="1" fill-rule="nonzero"/><g clip-path="url(#316a7fcc1f)"><path fill="#ebad17" d="M 48.84375 166.839844 L 167.363281 166.839844 L 167.363281 172.933594 L 48.84375 172.933594 Z M 48.84375 166.839844 " fill-opacity="1" fill-rule="nonzero"/></g><g clip-path="url(#0d1b6853a2)"><path fill="#ebad17" d="M 37.390625 172.933594 L 175.359375 172.933594 L 175.359375 179.222656 L 37.390625 179.222656 Z M 37.390625 172.933594 " fill-opacity="1" fill-rule="nonzero"/></g><g clip-path="url(#de8f2da04f)"><path fill="#ebad17" d="M 27.894531 179.222656 L 184.878906 179.222656 L 184.878906 186.484375 L 27.894531 186.484375 Z M 27.894531 179.222656 " fill-opacity="1" fill-rule="nonzero"/></g><g clip-path="url(#e059bbf199)"><g clip-path="url(#ee673d5789)"><g clip-path="url(#0a7a902280)"><g clip-path="url(#56d08dfb71)"><path fill="#f9b91f" d="M 78.371094 127.292969 C 78.320312 127.175781 78.21875 127.097656 78.097656 127.0625 C 76.394531 125.621094 75.054688 124.605469 74.101562 123.929688 C 63.910156 112.71875 49.792969 107.613281 49.792969 107.613281 C 58.800781 122.347656 70.007812 124.300781 73.542969 124.535156 C 74.296875 125.066406 75.332031 125.847656 76.699219 126.996094 C 69.097656 126.667969 61.777344 124.957031 55.03125 122.085938 C 53.96875 120.253906 53.097656 118.917969 52.453125 117.992188 C 46.664062 103.988281 35.121094 94.394531 35.121094 94.394531 C 38.597656 111.3125 48.476562 116.949219 51.722656 118.371094 C 52.21875 119.082031 52.878906 120.097656 53.710938 121.507812 C 46.28125 118.148438 39.582031 113.367188 33.988281 107.480469 C 33.746094 105.203125 33.46875 103.511719 33.242188 102.34375 C 33.582031 87.203125 26.875 73.773438 26.875 73.773438 C 23.246094 90.65625 30.023438 99.792969 32.421875 102.40625 C 32.601562 103.316406 32.8125 104.621094 33.015625 106.429688 C 27.972656 100.875 23.894531 94.390625 21.089844 87.210938 C 21.726562 84.9375 22.105469 83.222656 22.332031 82.03125 C 28.25 68.089844 26.984375 53.128906 26.984375 53.128906 C 17.285156 67.601562 20.332031 78.660156 21.582031 81.863281 C 21.417969 82.828125 21.132812 84.179688 20.632812 86.003906 C 19.867188 83.929688 19.214844 81.792969 18.667969 79.609375 L 18.699219 79.589844 C 18.679688 79.5625 18.664062 79.539062 18.644531 79.507812 C 18.003906 76.917969 17.519531 74.265625 17.207031 71.550781 C 16.800781 68.027344 16.707031 64.539062 16.886719 61.113281 C 18.25 59.550781 19.21875 58.3125 19.875 57.417969 C 31.261719 47.421875 36.617188 33.398438 36.617188 33.398438 C 21.726562 42.148438 19.578125 53.316406 19.277344 56.851562 C 18.773438 57.542969 18.03125 58.488281 16.976562 59.71875 C 17.515625 52.535156 19.28125 45.632812 22.09375 39.253906 C 24.089844 38.058594 25.527344 37.085938 26.503906 36.382812 C 40.390625 30.324219 49.757812 18.597656 49.757812 18.597656 C 33.023438 22.375 27.539062 32.253906 26.132812 35.597656 C 25.351562 36.164062 24.226562 36.9375 22.71875 37.875 C 25.953125 30.992188 30.410156 24.757812 35.839844 19.472656 C 40.136719 17.140625 54.777344 8.972656 59.722656 3.46875 C 59.722656 3.46875 45.136719 1.789062 35.433594 18.683594 C 35.378906 18.703125 35.328125 18.734375 35.285156 18.777344 C 33.316406 20.6875 31.453125 22.738281 29.71875 24.925781 C 27.8125 27.328125 26.09375 29.839844 24.570312 32.445312 C 24.75 30.886719 24.9375 29.691406 25.097656 28.84375 C 27.804688 24.746094 36.878906 10.683594 38.660156 3.511719 C 38.660156 3.511719 25.09375 8.839844 24.363281 28.136719 C 24.128906 29.269531 23.789062 31.28125 23.523438 34.296875 C 20.1875 40.464844 17.921875 47.101562 16.785156 53.976562 C 16.511719 52.566406 16.347656 51.46875 16.246094 50.660156 C 17.574219 45.9375 21.941406 29.78125 21.457031 22.410156 C 21.457031 22.410156 10.152344 31.605469 15.332031 50.214844 C 15.457031 51.378906 15.75 53.421875 16.429688 56.425781 C 15.804688 61.417969 15.769531 66.519531 16.355469 71.648438 C 16.582031 73.613281 16.902344 75.554688 17.296875 77.46875 C 16.570312 76.320312 16.039062 75.402344 15.664062 74.714844 C 15.167969 69.832031 13.292969 53.199219 10.128906 46.523438 C 10.128906 46.523438 2.996094 59.234375 14.652344 74.632812 C 15.183594 75.648438 16.175781 77.390625 17.839844 79.84375 C 19.726562 87.429688 22.964844 94.523438 27.40625 100.847656 C 26.109375 99.988281 25.140625 99.285156 24.464844 98.761719 C 22.039062 94.492188 13.621094 80.027344 8.035156 75.191406 C 8.035156 75.191406 6.632812 89.695312 23.503906 99.09375 C 24.425781 99.835938 26.101562 101.078125 28.753906 102.726562 L 28.761719 102.707031 C 31.957031 106.917969 35.699219 110.761719 39.949219 114.136719 C 41.695312 115.519531 43.496094 116.804688 45.34375 117.984375 C 43.847656 117.75 42.699219 117.519531 41.878906 117.332031 C 37.898438 114.464844 24.207031 104.832031 17.113281 102.769531 C 17.113281 102.769531 21.890625 116.539062 41.144531 118.039062 C 42.257812 118.316406 44.222656 118.726562 47.171875 119.109375 C 53.226562 122.699219 59.773438 125.222656 66.589844 126.625 C 64.96875 126.980469 63.726562 127.195312 62.835938 127.324219 C 58.089844 126.085938 41.847656 122.039062 34.488281 122.671875 C 34.488281 122.671875 43.90625 133.789062 62.40625 128.25 C 63.578125 128.097656 65.640625 127.761719 68.667969 127.011719 C 71.726562 127.53125 74.835938 127.835938 77.972656 127.898438 C 78.234375 127.90625 78.4375 127.675781 78.410156 127.417969 C 78.40625 127.382812 78.390625 127.351562 78.378906 127.316406 L 78.398438 127.316406 C 78.386719 127.308594 78.378906 127.300781 78.371094 127.292969 " fill-opacity="1" fill-rule="nonzero"/></g></g></g></g><g clip-path="url(#80d1d03b14)"><path fill="#f9b91f" d="M 140.25 131.363281 C 140.289062 131.242188 140.378906 131.148438 140.496094 131.105469 C 142.023438 129.476562 143.238281 128.3125 144.109375 127.535156 C 152.957031 115.234375 166.398438 108.554688 166.398438 108.554688 C 159.128906 124.21875 148.21875 127.4375 144.730469 128.070312 C 144.042969 128.683594 143.105469 129.582031 141.878906 130.878906 C 149.390625 129.6875 156.46875 127.152344 162.84375 123.53125 C 163.691406 121.589844 164.40625 120.160156 164.9375 119.167969 C 169.09375 104.597656 179.46875 93.75 179.46875 93.75 C 177.945312 110.953125 168.769531 117.679688 165.707031 119.460938 C 165.292969 120.226562 164.753906 121.308594 164.089844 122.804688 C 171.085938 118.621094 177.199219 113.109375 182.082031 106.621094 C 182.066406 104.332031 182.148438 102.621094 182.242188 101.4375 C 180.179688 86.429688 185.3125 72.324219 185.3125 72.324219 C 190.84375 88.683594 185.148438 98.535156 183.066406 101.402344 C 182.988281 102.328125 182.925781 103.648438 182.929688 105.46875 C 187.308594 99.375 190.621094 92.464844 192.589844 85.015625 C 191.695312 82.828125 191.125 81.171875 190.765625 80.011719 C 183.296875 66.835938 182.851562 51.828125 182.851562 51.828125 C 194.136719 65.097656 192.367188 76.433594 191.492188 79.757812 C 191.765625 80.699219 192.203125 82.007812 192.910156 83.765625 C 193.429688 81.613281 193.835938 79.417969 194.132812 77.1875 L 194.097656 77.171875 C 194.113281 77.140625 194.128906 77.113281 194.140625 77.085938 C 194.484375 74.4375 194.664062 71.75 194.664062 69.015625 C 194.664062 65.46875 194.359375 61.992188 193.792969 58.609375 C 192.261719 57.210938 191.15625 56.089844 190.402344 55.277344 C 177.953125 46.644531 171.03125 33.320312 171.03125 33.320312 C 186.820312 40.316406 190.230469 51.167969 190.929688 54.644531 C 191.511719 55.277344 192.355469 56.132812 193.542969 57.230469 C 192.191406 50.15625 189.648438 43.503906 186.128906 37.484375 C 184.007812 36.527344 182.46875 35.722656 181.421875 35.132812 C 166.933594 30.699219 156.289062 20.117188 156.289062 20.117188 C 173.347656 21.960938 179.921875 31.152344 181.699219 34.308594 C 182.539062 34.785156 183.746094 35.425781 185.347656 36.183594 C 181.351562 29.71875 176.214844 24.03125 170.214844 19.398438 C 165.683594 17.570312 150.207031 11.125 144.667969 6.222656 C 144.667969 6.222656 158.964844 2.890625 170.53125 18.566406 C 170.589844 18.582031 170.640625 18.605469 170.691406 18.644531 C 172.863281 20.320312 174.945312 22.144531 176.921875 24.117188 C 179.089844 26.289062 181.082031 28.585938 182.890625 31.003906 C 182.535156 29.472656 182.214844 28.308594 181.957031 27.484375 C 178.800781 23.722656 168.183594 10.785156 165.597656 3.863281 C 165.597656 3.863281 179.683594 7.609375 182.609375 26.699219 C 182.96875 27.796875 183.535156 29.757812 184.140625 32.722656 C 188.160156 38.46875 191.167969 44.804688 193.082031 51.503906 C 193.191406 50.074219 193.230469 48.964844 193.238281 48.152344 C 191.378906 43.609375 185.199219 28.054688 184.84375 20.675781 C 184.84375 20.675781 197.121094 28.527344 194.097656 47.605469 C 194.105469 48.773438 194.046875 50.839844 193.714844 53.898438 C 194.902344 58.789062 195.519531 63.851562 195.519531 69.015625 C 195.519531 70.992188 195.421875 72.957031 195.246094 74.902344 C 195.839844 73.679688 196.261719 72.707031 196.558594 71.980469 C 196.492188 67.074219 196.460938 50.335938 198.84375 43.34375 C 198.84375 43.34375 207.378906 55.160156 197.554688 71.785156 C 197.140625 72.855469 196.355469 74.699219 194.976562 77.324219 C 193.96875 85.074219 191.558594 92.492188 187.867188 99.28125 C 189.058594 98.28125 189.941406 97.472656 190.554688 96.875 C 192.476562 92.359375 199.191406 77.027344 204.1875 71.585938 C 204.1875 71.585938 207.238281 85.835938 191.546875 97.097656 C 190.714844 97.9375 189.191406 99.363281 186.746094 101.300781 L 186.734375 101.285156 C 184.039062 105.832031 180.757812 110.074219 176.921875 113.914062 C 175.34375 115.488281 173.699219 116.96875 172 118.351562 C 173.460938 117.949219 174.574219 117.589844 175.367188 117.308594 C 178.996094 114.003906 191.5 102.878906 198.3125 100.015625 C 198.3125 100.015625 195.136719 114.242188 176.175781 117.925781 C 175.101562 118.328125 173.199219 118.960938 170.3125 119.675781 C 164.707031 123.933594 158.492188 127.1875 151.878906 129.355469 C 153.527344 129.523438 154.789062 129.597656 155.683594 129.625 C 160.261719 127.855469 175.933594 121.980469 183.316406 121.769531 C 183.316406 121.769531 175.230469 133.890625 156.21875 130.496094 C 155.039062 130.476562 152.953125 130.378906 149.859375 129.976562 C 146.875 130.84375 143.820312 131.5 140.710938 131.921875 C 140.457031 131.953125 140.226562 131.75 140.226562 131.492188 C 140.226562 131.457031 140.238281 131.421875 140.246094 131.386719 L 140.226562 131.386719 C 140.234375 131.378906 140.242188 131.371094 140.25 131.363281 " fill-opacity="1" fill-rule="nonzero"/></g></svg>